<svg id="Layer_1" data-name="Layer 1"
    xmlns="http://www.w3.org/2000/svg" viewBox="0 0 240.26 215.74">
    <defs>
        <style>.cls-1{fill:#FFFFFF;}.cls-2{fill:#FFFFFF;}</style>
    </defs>
    <path class="cls-1" d="M159.63,66.37A39.58,39.58,0,0,1,126,105.44a1.59,1.59,0,0,1-1.84-1.57V99a1.59,1.59,0,0,1,1.35-1.57,31.37,31.37,0,0,0,12.37-5,1.61,1.61,0,0,0,.23-2.45l-2.85-2.84a1.58,1.58,0,0,0-1.95-.24A24.32,24.32,0,0,1,96.51,72.34a1.59,1.59,0,0,1,1.55-2h5a1.56,1.56,0,0,1,1.49,1.06c3.24,9.95,15.73,15.74,27.28,7.09a1.75,1.75,0,0,0,.36-.36C142.35,64.79,132.94,50,120.13,50a16.38,16.38,0,0,0-15.54,11.29,1.57,1.57,0,0,1-1.5,1.08h-5a1.6,1.6,0,0,1-1.55-2,24.45,24.45,0,0,1,18.35-17.81,1.58,1.58,0,0,0,1.27-1.53V37a1.6,1.6,0,0,0-1.91-1.57,31.5,31.5,0,0,0,.55,62A1.6,1.6,0,0,1,116.13,99v4.9a1.6,1.6,0,0,1-1.85,1.57A39.5,39.5,0,1,1,143.6,34.63a1.59,1.59,0,0,1,.2,2.41l-3.46,3.46a1.59,1.59,0,0,1-2.07.15A31.18,31.18,0,0,0,126,35.44,1.59,1.59,0,0,0,124.13,37v4a1.58,1.58,0,0,0,1.22,1.56,24.36,24.36,0,0,1,15.31,36.92,1.55,1.55,0,0,0,.23,1.94l2.84,2.85a1.6,1.6,0,0,0,2.45-.24,31.38,31.38,0,0,0-.33-35.82,1.62,1.62,0,0,1,.15-2.07l3.45-3.45a1.6,1.6,0,0,1,2.42.2A39.29,39.29,0,0,1,159.63,66.37Z"/>
    <circle class="cls-2" cx="120.13" cy="66.27" r="8.46"/>
</svg>